<?xml version="1.0" standalone="no"?>
<!DOCTYPE svg PUBLIC "-//W3C//DTD SVG 20010904//EN"
 "http://www.w3.org/TR/2001/REC-SVG-20010904/DTD/svg10.dtd">
<svg version="1.0" xmlns="http://www.w3.org/2000/svg"
 width="2892.000000pt" height="3558.000000pt" viewBox="0 0 2892.000000 3558.000000"
 preserveAspectRatio="xMidYMid meet">

<g transform="translate(0.000000,3558.000000) scale(0.100000,-0.100000)"
fill="#000000" stroke="none">
<path d="M18685 35560 c4 -6 11 -8 16 -5 14 9 11 15 -7 15 -8 0 -12 -5 -9 -10z"/>
<path d="M17516 14370 c-3 -14 -7 -80 -8 -148 l-3 -123 23 28 c47 59 53 154
13 231 -19 36 -19 36 -25 12z"/>
<path d="M16165 11160 c-4 -6 10 -10 35 -10 25 0 39 4 35 10 -3 6 -19 10 -35
10 -16 0 -32 -4 -35 -10z"/>
<path d="M26361 272 c-45 -22 -69 -57 -77 -111 -7 -43 -7 -43 17 -31 29 16
149 136 149 150 0 16 -52 12 -89 -8z"/>
<path d="M26178 44 c-16 -8 -28 -19 -28 -24 0 -18 26 -10 50 15 26 28 18 31
-22 9z"/>
</g>
</svg>
